<svg xmlns="http://www.w3.org/2000/svg" viewBox="0 0 358.67 581.77"><g id="Layer_2" data-name="Layer 2"><g id="Layer_1-2" data-name="Layer 1"><circle cx="159.98" cy="61.44" r="38.5"/><path d="M58.61,157C54.27,191.5,27.85,251.5,19.46,277c-2.09,6.35-1.93,11.31,4.42,13.39l98.2,32.23c12.09,4,17.74-2.87,23-14.47l37.11-78c12.68-30.6,16.43-32,54-15.32l91.43,43.57c6.81,3.55,10.87-.51,17.72-8.72,7.49-9,17.72-22.32,11.33-30.24-5.26-6.52-120.29-67.73-147.4-82.52a25,25,0,0,1-8.24-7.25l-7.85-10.83a25,25,0,0,0-13-9.25L125.42,93.16a18.87,18.87,0,0,0-3.65-.72L94.85,89.72a24.86,24.86,0,0,1-8-2.17L62.49,76.27a18,18,0,0,1-9.17-22.95l3.43-8.62a25,25,0,0,1,9.34-11.54L75,27.23a40.65,40.65,0,0,1,4.66-1.48c.86-.28,1.28-1.3-1-6C74.61,11.26,65.41-.65,53.84,0,45.05.54,35.67,10.09,31.67,14.66a24.91,24.91,0,0,0-3.18,4.57l-27,50.05a12.09,12.09,0,0,0-.9,9.35,11.92,11.92,0,0,0,3.26,5l45.68,43.46a11.9,11.9,0,0,1,2.55,3.4C54.92,136.55,59.39,150.75,58.61,157Z"/><path d="M7.9,308.68a15.35,15.35,0,0,1,19.29-14.19c31.59,8.38,92.25,29.8,92.25,29.8a21.34,21.34,0,0,1,14.81,21.45l-4.17,79.34a10.2,10.2,0,0,0,.15,2.47l4.65,26.07a11.51,11.51,0,0,1,.17,2.62l-5,95a4.45,4.45,0,0,0,.14,1.41c.64,2.49,2.58,11.41-.69,17.73-3.83,7.4-43.15,15.57-46.21-3.83-2.94-18.61,2.34-100.8,2.78-107.56a4.42,4.42,0,0,0,0-.89L78,393.71a4.7,4.7,0,0,0-.13-.63l-5.43-20.26A4.66,4.66,0,0,0,67,369.45l-.6.12a4.64,4.64,0,0,0-3.68,3.62L47.87,444.41a4.7,4.7,0,0,0,.38,3l15.5,31.47a4,4,0,0,1,.23.57L80.8,529.08c.15.43,2.43,7.39,2.44,7.84.19,5.59-.76,37.11-2.21,38.77s-4.64,16.85-17.66-8.43C53.23,547.58,21.58,490,8.06,465.43a46.08,46.08,0,0,1-5.68-24.17Z"/></g></g></svg>