<svg id="Layer_1" data-name="Layer 1" xmlns="http://www.w3.org/2000/svg" viewBox="0 0 212.13 202.31"><defs><style>.cls-1,.cls-2,.cls-3,.cls-4,.cls-5{fill:none;stroke-miterlimit:10;}.cls-1{stroke:#b17f4a;}.cls-2{stroke:#be1622;}.cls-3{stroke:#1d1d1b;}.cls-4{stroke:#009fe3;}.cls-5{stroke:#95c11f;}.cls-6{font-size:12px;}.cls-6,.cls-7{font-family:CMUSerif-Italic, CMU Serif;font-style:italic;}.cls-7{font-size:6px;}</style></defs><g id="Layer_2" data-name="Layer 2"><g id="Layer_1-2" data-name="Layer 1-2"><ellipse cx="155.09" cy="158.2" rx="1.94" ry="1.86"/><path d="M153.94,166.42l.26,3,2.17,1.17s1.56,1.25,2.24.93-.64-9.9-.64-9.9Z"/><path d="M151,164.9a4.14,4.14,0,0,0,.5.28l2.23,1.15a.7.7,0,0,0,.84,0h0l.12-.1,2.09-2.34s2-1.9.72-3a1.62,1.62,0,0,0-2.31.13.59.59,0,0,0-.13.18L154,163.37a.75.75,0,0,1-.82.44,3.84,3.84,0,0,0-.87-.11.68.68,0,0,1-.62-.49c-.42-1.25-1.42-4.82-1.42-4.82a.75.75,0,0,0-.82-.62h0l-.08,0a.74.74,0,0,0-.56.89s1.56,5.82,1.93,6"/><path d="M155.18,161.42a.16.16,0,0,1,0,.22l-.68,1.1c0,.07,0,.22-.48,0l-1.66-.51-.15,0a1.44,1.44,0,0,1-.72-.48l-.88-1.06a.11.11,0,0,1,0-.11l-.22-1.4c-.05-.39-.31-.93.06-.71l2.16,2.24c.13.14.14.12.38.18l2.14.49Z"/><path d="M153.81,167.65c-.05,0-.07-.1-.12-.14a5,5,0,0,0-2.49-1.4c-1.15-.31-1.07,1.4-1.07,1.12v2a3,3,0,0,1-.13.89c-.23.77-.69,2.29-.72,2.36-.42,1-2.59,3.55-.56,3.14.47-.09,2.27-2.45,2.63-2.89a.4.4,0,0,0,.1-.15c.12-.21.45-.82.61-1.14a.68.68,0,0,0,.06-.4c0-.45-.3-1.32-.09-1.38L153,171a1.72,1.72,0,0,1,.25,1.61,3,3,0,0,1-.54.9,19.75,19.75,0,0,0-2.08,4.62,2,2,0,0,0-.06,1.12c.12.48.27,1.1.28,1.24s.22,5.47.28,7.07a3.63,3.63,0,0,0,.28,1.44c.42.49.88.51,1.2-.61a33.68,33.68,0,0,0,.66-4.42l.24-1.59a3,3,0,0,0,0-.84l-.28-1.78a1.11,1.11,0,0,1,.21-.88l2.65-3.39a1.3,1.3,0,0,1,.19-.22,5.72,5.72,0,0,0,1.64-1.65,4.4,4.4,0,0,0,.41-1.38,1.13,1.13,0,0,0-.38-.86Z"/></g></g><g id="Layer_2-2" data-name="Layer 2"><g id="Layer_1-2-2" data-name="Layer 1-2"><circle cx="33.02" cy="51.9" r="2.54"/><path d="M40.14,56.46a.76.76,0,0,1,.17-.23l3-2.87a.74.74,0,0,0,.22-.33.81.81,0,0,0-.06-.61L41.7,49.11a2,2,0,0,0-.21-.3,2.73,2.73,0,0,0-1.47-1c-.76,0-1.37.75-1.63,1.31-.16.31-.13.37-.07.39l.31.1.58.39a1.64,1.64,0,0,1,.62.76l.23.57a1.2,1.2,0,0,1-.61,1.52l-1.61.74a1.56,1.56,0,0,1-.52.15l-1.78.17L35.3,54l-3.61,1.09a1.61,1.61,0,0,0-.86.61l-.52.71a1.66,1.66,0,0,1-.54.48c-1.79,1-9.39,5-9.73,5.45s.25,1.4.74,2,.72.81,1.17.58L28,62c2.48-1.1,2.73-1,3.56,1L34,68.18c.35.77.72,1.22,1.52,1L42,67c.42-.14.43-.47.29-.88-.55-1.69-2.29-5.65-2.58-7.92A4.59,4.59,0,0,1,40.14,56.46Z"/><path d="M43.42,77A3.06,3.06,0,0,1,43,78.56c-.89,1.62-3,5.42-3.65,6.72-.85,1.67-1.07.67-1.16.56a17.46,17.46,0,0,1-.15-2.56s.15-.49.16-.52l1.11-3.27s0,0,0,0l1-2.08a.34.34,0,0,0,0-.2l-1-4.7a.3.3,0,0,0-.25-.23h0a.29.29,0,0,0-.35.22l-.36,1.34s0,0,0,0l-.53,4.25a.06.06,0,0,0,0,.06,69.64,69.64,0,0,1,.18,7.1c-.2,1.28-2.8.74-3,.25A1.83,1.83,0,0,1,35,84.32a.14.14,0,0,0,0-.09L34.66,78a1.09,1.09,0,0,1,0-.18L35,76.06a.86.86,0,0,0,0-.16l-.27-5.24a1.38,1.38,0,0,1,1-1.41s4-1.42,6.09-2a.83.83,0,0,1,.22,0,1,1,0,0,1,1.06,1Z"/></g></g><line class="cls-1" x1="148.15" y1="199.25" x2="148.15" y2="14.91"/><line class="cls-2" x1="0.81" y1="85.89" x2="212.13" y2="85.89"/><line class="cls-3" x1="12.13" y1="3.66" x2="12.13" y2="190.12"/><line class="cls-3" x1="12.11" y1="3.82" x2="9.45" y2="9.81"/><line class="cls-3" x1="12.11" y1="3.78" x2="9.44" y2="9.77"/><line class="cls-3" x1="12.15" y1="3.78" x2="14.82" y2="9.76"/><path class="cls-4" d="M37.32,109.91c83.06-24,94.64-36,139.62-96.94"/><path class="cls-5" d="M40.07,145.86C89,142.42,143,131.23,197.66,76.35"/><text class="cls-6" transform="translate(0 10.1)">h</text><line class="cls-3" x1="209.24" y1="188.95" x2="10.78" y2="188.95"/><line class="cls-3" x1="209.08" y1="188.93" x2="203.09" y2="186.26"/><line class="cls-3" x1="209.12" y1="188.93" x2="203.13" y2="186.26"/><line class="cls-3" x1="209.12" y1="188.97" x2="203.14" y2="191.64"/><text class="cls-6" transform="translate(204.65 198.07)">s</text><text class="cls-6" transform="translate(180.37 12.31)">p</text><text class="cls-7" transform="translate(184.3 17.06)">2</text><text class="cls-6" transform="translate(199.32 73.45)">p</text><text class="cls-7" transform="translate(203.26 78.2)">1</text></svg>