<svg xmlns="http://www.w3.org/2000/svg" viewBox="0 0 39.07 117.75"><g id="Layer_2" data-name="Layer 2"><g id="Layer_1-2" data-name="Layer 1"><ellipse cx="13.29" cy="6.63" rx="6.94" ry="6.63"/><path d="M3,19S-1.74,53.19.69,54.34s8-3.32,8-3.32l7.75-4.18L17.37,36Z"/><path d="M28.67,29.46c.77-.61,4.25-5.46,4.47-6.42L35.78,8.37a2.68,2.68,0,0,0-2.29-3.26h0a2.68,2.68,0,0,0-2.94,2.21L28.3,17.8a3.73,3.73,0,0,1-.42,1.06c-.92,1.59-3.15,6.14-3.8,7-.15.2-2.23.25-3.91.65a2.63,2.63,0,0,1-2.93-1.39l-4-7.73a2.38,2.38,0,0,0-.48-.66c-1-1-4.37-3.69-8.25-.44C-.09,20.2,7.05,27,7.1,27l7.47,8.35a2.41,2.41,0,0,0,.41.37h0A2.54,2.54,0,0,0,18,35.66l8-4.26a6,6,0,0,0,1.45-.9"/><path d="M13.24,18l7.65-1.74c.85-.22.89-.16,1.35-.64l7.71-8c1.34-.81.41,1.14.2,2.52l-.77,5a.54.54,0,0,1-.1.39l-3.14,3.79a5.21,5.21,0,0,1-2.57,1.7l-.55.14-5.94,1.84c-1.66.64-1.56.12-1.71-.14l-2.43-3.94A.55.55,0,0,1,13.24,18Z"/><path d="M3.13,53.65a3.94,3.94,0,0,0-1.34,3.06,15.21,15.21,0,0,0,1.46,4.93c1,2.18,4.52,5,5.83,5.91a3.67,3.67,0,0,1,.7.77l9.44,12.1A4,4,0,0,1,20,83.58L19,89.94a9.62,9.62,0,0,0,0,3l.86,5.65c0,.28,1,11,2.33,15.81,1.15,4,2.81,3.92,4.29,2.16.74-.88.93-4,1-5.13.23-5.73.94-24.73,1-25.24s.59-2.74,1-4.44a7.15,7.15,0,0,0-.2-4c-1.4-4.1-4.74-13.31-7.43-16.5a10.44,10.44,0,0,1-1.92-3.2,6.17,6.17,0,0,1,.87-5.77l3.4-4.64c.75.22-.16,3.32-.32,4.94A2.42,2.42,0,0,0,24.09,54c.58,1.15,1.75,3.32,2.17,4.08a3.1,3.1,0,0,0,.36.53c1.31,1.56,7.74,10,9.4,10.32,7.24,1.46-.48-7.7-2-11.21-.1-.25-1.76-5.68-2.57-8.43A10.82,10.82,0,0,1,31,46.1c0-2.6,0-7.36,0-7.21,0,1,.29-5.11-3.84-4a18,18,0,0,0-8.88,5c-.17.15-.26.36-.42.51Z"/></g></g></svg>